<?xml version="1.0" encoding="UTF-8"?>
<svg id="Capa_1" data-name="Capa 1" xmlns="http://www.w3.org/2000/svg" xmlns:xlink="http://www.w3.org/1999/xlink" viewBox="0 0 399.73 149.01">
  <defs>
    <style>
      .cls-1 {
        fill: #fff;
      }

      .cls-2 {
        fill: url(#Degradado_sin_nombre_144);
      }

      .cls-3 {
        fill: url(#Degradado_sin_nombre_144-4);
      }

      .cls-4 {
        fill: url(#Degradado_sin_nombre_144-2);
      }

      .cls-5 {
        fill: url(#Degradado_sin_nombre_144-3);
      }

      .cls-6 {
        fill: url(#Degradado_sin_nombre_144-5);
      }

      .cls-7 {
        fill: url(#Degradado_sin_nombre_144-6);
      }
    </style>
    <linearGradient id="Degradado_sin_nombre_144" data-name="Degradado sin nombre 144" x1="-56.55" y1="88.66" x2="449.44" y2="224.82" gradientUnits="userSpaceOnUse">
      <stop offset="0" stop-color="#f6ff55"/>
      <stop offset="1" stop-color="#6dbaff"/>
    </linearGradient>
    <linearGradient id="Degradado_sin_nombre_144-2" data-name="Degradado sin nombre 144" x1="-52.41" y1="73.26" x2="453.59" y2="209.43" xlink:href="#Degradado_sin_nombre_144"/>
    <linearGradient id="Degradado_sin_nombre_144-3" data-name="Degradado sin nombre 144" x1="-46.77" y1="52.3" x2="459.23" y2="188.47" xlink:href="#Degradado_sin_nombre_144"/>
    <linearGradient id="Degradado_sin_nombre_144-4" data-name="Degradado sin nombre 144" x1="-41.01" y1="30.91" x2="464.98" y2="167.08" xlink:href="#Degradado_sin_nombre_144"/>
    <linearGradient id="Degradado_sin_nombre_144-5" data-name="Degradado sin nombre 144" x1="-37.05" y1="16.2" x2="468.94" y2="152.36" xlink:href="#Degradado_sin_nombre_144"/>
    <linearGradient id="Degradado_sin_nombre_144-6" data-name="Degradado sin nombre 144" x1="-32.92" y1=".83" x2="473.08" y2="137" xlink:href="#Degradado_sin_nombre_144"/>
  </defs>
  <g>
    <path class="cls-2" d="M49.51,106.07c4.01,3.23,7.68,9.23,7.68,16.46,0,13.35-11.24,24.92-25.36,24.92H0V69.58H31.26c13.24,0,23.81,10.57,23.81,23.58,0,5.01-3,10.35-5.56,12.9Zm-29.26-7.34h8.35c3.11,0,4.89-2.45,4.89-4.89s-1.78-4.9-4.89-4.9h-8.35v9.79Zm9.46,29.37c3.34,0,6.01-2.89,6.01-6.23s-2.67-6.23-6.01-6.23h-9.46v12.46h9.46Z"/>
    <path class="cls-4" d="M68.2,69.58h20.8v58.74h27.81v19.13h-48.61V69.58Z"/>
    <path class="cls-5" d="M162.54,68.24c23.36,0,40.38,18.13,40.38,40.38s-17.02,40.38-40.38,40.38-40.38-18.13-40.38-40.38,17.02-40.38,40.38-40.38Zm0,60.41c11.46,0,18.8-9.01,18.8-20.02s-7.34-20.02-18.8-20.02-18.8,9.01-18.8,20.02,7.34,20.02,18.8,20.02Z"/>
    <path class="cls-3" d="M264.78,145.01c-5.9,2.89-11.35,3.89-17.35,3.89-22.36,0-39.83-18.13-39.83-40.27s17.46-40.38,39.83-40.38c6.01,0,11.35,1,17.35,3.89v24.58c-3.34-4.67-9.23-8.12-16.13-8.12-10.68,0-19.47,9.12-19.47,20.02s8.46,20.02,18.8,20.02c6.79,0,13.46-4,16.8-8.79v25.14Z"/>
    <path class="cls-6" d="M275.57,69.58h20.8v24.14l15.35-24.14h24.7l-24.03,33.6,25.59,44.28h-25.59l-13.68-26.03-2.34,3.45v22.58h-20.8V69.58Z"/>
    <path class="cls-7" d="M375.15,98.17c13.68,0,24.59,11.24,24.59,24.36s-11.01,24.92-24.59,24.92h-31.59v-20.25h29.92c2.56,0,4.9-1.89,4.9-4.56,0-2.45-2.34-4.45-4.9-4.45h-9.57c-13.35,0-24.14-11.35-24.14-24.59s10.79-24.03,24.14-24.03h27.03v19.91h-25.81c-2.56,0-4.34,2-4.34,4.34,0,2.56,1.78,4.34,4.34,4.34h10.01Z"/>
  </g>
  <g>
    <g>
      <path class="cls-1" d="M110.25,38.95c-2.44,1.2-4.7,1.61-7.18,1.61-9.26,0-16.49-7.51-16.49-16.67s7.23-16.72,16.49-16.72c2.49,0,4.7,.41,7.18,1.61v10.18c-1.38-1.93-3.82-3.36-6.68-3.36-4.42,0-8.06,3.78-8.06,8.29s3.5,8.29,7.78,8.29c2.81,0,5.57-1.66,6.95-3.64v10.41Z"/>
      <path class="cls-1" d="M129.82,7.18c9.67,0,16.72,7.51,16.72,16.72s-7.05,16.72-16.72,16.72-16.72-7.51-16.72-16.72,7.05-16.72,16.72-16.72Zm0,25.01c4.74,0,7.78-3.73,7.78-8.29s-3.04-8.29-7.78-8.29-7.78,3.73-7.78,8.29,3.04,8.29,7.78,8.29Z"/>
      <path class="cls-1" d="M150.04,7.73h7.09l11.05,11.28V7.73h8.34V41.12l-18.15-19.3v18.15h-8.34V7.73Z"/>
      <path class="cls-1" d="M196.74,7.18c9.67,0,16.72,7.51,16.72,16.72,0,7.88-5.11,14.51-12.62,16.26v3.75h-7.97v-3.71c-7.64-1.7-12.85-8.34-12.85-16.3,0-9.21,7.05-16.72,16.72-16.72Zm-3.87,24.04v-4.05h7.97v3.91c2.3-1.47,3.68-4.15,3.68-7.18,0-4.56-3.04-8.29-7.78-8.29s-7.78,3.73-7.78,8.29c0,3.18,1.43,5.94,3.91,7.32Z"/>
      <path class="cls-1" d="M225.52,7.73V28.96c0,1.8,1.52,3.27,3.32,3.27,1.93,0,3.36-1.47,3.36-3.27V7.73h8.57V29c0,6.54-5.3,11.61-11.97,11.61s-11.79-5.07-11.79-11.61V7.73h8.52Z"/>
      <path class="cls-1" d="M245.83,7.73h20.91V15.97h-12.3v4.01h11.7v7.55h-11.7v4.19h12.48v8.24h-21.09V7.73Z"/>
      <path class="cls-1" d="M292.21,28.27c3.18,1.75,4.42,4.74,4.42,8.2v3.5h-8.61v-2.76c0-3.09-2.21-5.39-5.48-5.39h-2.26v8.15h-8.57V7.73h12.85c6.59,0,12.07,5.34,12.07,11.88,0,4.05-1.75,6.95-4.42,8.66Zm-8.84-12.53h-3.09v8.34h3.09c2.72,0,4.47-1.7,4.47-4.14s-1.75-4.19-4.47-4.19Z"/>
    </g>
    <path class="cls-1" d="M143.46,9.46c2.71,0,4.44-2.13,4.44-4.73s-1.73-4.73-4.44-4.73-4.44,2.13-4.44,4.73,1.73,4.73,4.44,4.73Z"/>
    <rect class="cls-1" x="87.55" y="45.35" width="101.41" height="7.66"/>
    <rect class="cls-1" x="205.07" y="45.35" width="91.56" height="7.66"/>
  </g>
</svg>